<!-- /public/icons/linkedin.svg -->
<svg xmlns="http://www.w3.org/2000/svg" width="24" height="24" fill="currentColor" viewBox="0 0 24 24">
  <path d="M20.447 20.452h-3.554v-5.569c0-1.327-.025-3.036-1.849-3.036-1.849 0-2.131 1.445-2.131 2.938v5.667H9.36V9h3.414v1.561h.048c.476-.9 1.637-1.849 3.37-1.849 3.6 0 4.268 2.37 4.268 5.455v6.285zM5.337 7.433c-1.144 0-2.07-.928-2.07-2.07 0-1.143.926-2.07 2.07-2.07s2.07.927 2.07 2.07c0 1.142-.926 2.07-2.07 2.07zM6.853 20.452H3.821V9h3.032v11.452zM22.225 0H1.771C.792 0 0 .771 0 1.723v20.553C0 23.23.792 24 1.771 24h20.451C23.2 24 24 23.229 24 22.276V1.723C24 .77 23.2 0 22.222 0z"/>
</svg>