<!-- /public/icons/instagram.svg -->
<svg xmlns="http://www.w3.org/2000/svg" width="24" height="24" fill="currentColor" viewBox="0 0 24 24">
  <path d="M12 2.163c3.204 0 3.584.012 4.85.07 1.366.062 2.633.337 3.608 1.311.975.975 1.25 2.242 1.311 3.608.058 1.266.07 1.646.07 4.848s-.012 3.582-.07 4.848c-.062 1.366-.337 2.633-1.311 3.608-.975.975-2.242 1.25-3.608 1.311-1.266.058-1.646.07-4.848.07s-3.582-.012-4.848-.07c-1.366-.062-2.633-.337-3.608-1.311-.975-.975-1.25-2.242-1.311-3.608C2.175 15.646 2.163 15.266 2.163 12s.012-3.582.07-4.848c.062-1.366.337-2.633 1.311-3.608C4.519 2.5 5.786 2.225 7.152 2.163 8.418 2.105 8.798 2.093 12 2.093zm0-2.163C8.741 0 8.332.012 7.052.07 5.69.127 4.386.402 3.267 1.52 2.149 2.638 1.873 3.942 1.816 5.305.758 6.586.75 7.003.75 12c0 4.997.008 5.414.067 6.695.057 1.363.332 2.667 1.45 3.785 1.119 1.119 2.423 1.394 3.785 1.45C8.332 23.988 8.741 24 12 24s3.668-.012 4.948-.07c1.362-.057 2.666-.332 3.785-1.45 1.118-1.118 1.393-2.422 1.45-3.785.058-1.281.07-1.698.07-6.695s-.012-5.414-.07-6.695c-.057-1.363-.332-2.667-1.45-3.785C19.614.402 18.31.127 16.948.07 15.668.012 15.259 0 12 0zm0 5.838a6.162 6.162 0 100 12.324 6.162 6.162 0 000-12.324zm0 10.162a3.999 3.999 0 110-7.998 3.999 3.999 0 010 7.998zm6.406-11.845a1.44 1.44 0 11-2.88 0 1.44 1.44 0 012.88 0z"/>
</svg>
