<!-- /public/icons/twitter.svg -->
<svg xmlns="http://www.w3.org/2000/svg" width="24" height="24" fill="currentColor" viewBox="0 0 24 24">
  <path d="M23.954 4.569c-.885.392-1.83.656-2.825.775 1.014-.611 1.794-1.574 2.163-2.724-.951.564-2.005.974-3.127 1.194-.897-.956-2.178-1.553-3.594-1.553-2.719 0-4.924 2.206-4.924 4.924 0 .39.045.765.127 1.124-4.094-.205-7.725-2.165-10.158-5.144-.425.729-.667 1.577-.667 2.475 0 1.708.869 3.216 2.188 4.099-.807-.025-1.566-.248-2.229-.616v.062c0 2.385 1.693 4.374 3.946 4.828-.413.111-.849.171-1.296.171-.317 0-.626-.03-.928-.086.631 1.953 2.445 3.377 4.6 3.419-1.68 1.316-3.808 2.101-6.102 2.101-.396 0-.787-.023-1.175-.068 2.179 1.396 4.768 2.212 7.548 2.212 9.057 0 14.01-7.506 14.01-14.009 0-.213-.005-.425-.014-.636.961-.695 1.797-1.562 2.457-2.549z"/>
</svg>
